<svg xmlns="http://www.w3.org/2000/svg" viewBox="0 0 128 128">
  <ellipse cx="64" cy="72" rx="52" ry="28" fill="#8B5A2B"/>
  <ellipse cx="64" cy="72" rx="38" ry="22" fill="#D2B48C"/>
  <ellipse cx="64" cy="72" rx="28" ry="16" fill="none" stroke="#A0826D" stroke-width="2"/>
  <ellipse cx="64" cy="72" rx="18" ry="10" fill="none" stroke="#A0826D" stroke-width="1.5"/>
  <ellipse cx="64" cy="72" rx="8" ry="5" fill="#A0826D"/>
  <path d="M16 60Q20 72 16 84" stroke="#6B4423" stroke-width="2" fill="none"/>
  <path d="M24 54Q28 72 24 90" stroke="#6B4423" stroke-width="2" fill="none"/>
  <path d="M104 54Q100 72 104 90" stroke="#6B4423" stroke-width="2" fill="none"/>
  <path d="M112 60Q108 72 112 84" stroke="#6B4423" stroke-width="2" fill="none"/>
  <ellipse cx="52" cy="68" rx="8" ry="9" fill="white"/>
  <ellipse cx="76" cy="68" rx="8" ry="9" fill="white"/>
  <circle cx="54" cy="69" r="4" fill="#333"/>
  <circle cx="78" cy="69" r="4" fill="#333"/>
  <circle cx="56" cy="67" r="1.5" fill="white"/>
  <circle cx="80" cy="67" r="1.5" fill="white"/>
  <path d="M56 80Q64 86 72 80" stroke="#6B4423" stroke-width="2.5" fill="none" stroke-linecap="round"/>
  <ellipse cx="44" cy="76" rx="5" ry="3" fill="#E8A0A0" opacity="0.6"/>
  <ellipse cx="84" cy="76" rx="5" ry="3" fill="#E8A0A0" opacity="0.6"/>
  <path d="M80 44Q85 38 82 32" stroke="#6B4423" stroke-width="3" fill="none" stroke-linecap="round"/>
  <ellipse cx="80" cy="48" rx="6" ry="4" fill="#8B5A2B"/>
  <path d="M82 30Q88 26 86 34Q82 32 82 30" fill="#4A7C4E"/>
</svg>
